HIERARCHY
ROOT Hips
{
  OFFSET -11.0901 94.7764 0.731153
  CHANNELS 6 Xposition Yposition Zposition Zrotation Xrotation Yrotation
  JOINT Spine
  {
    OFFSET 0 10.1816 0.1315
    CHANNELS 6 Xposition Yposition Zposition Zrotation Xrotation Yrotation
    JOINT Spine1
    {
      OFFSET 0 10.0835 -1.0008
      CHANNELS 6 Xposition Yposition Zposition Zrotation Xrotation Yrotation
      JOINT Spine2
      {
        OFFSET 0 9.1 -1.3734
        CHANNELS 6 Xposition Yposition Zposition Zrotation Xrotation Yrotation
        JOINT Neck
        {
          OFFSET 0 16.6717 -2.5162
          CHANNELS 6 Xposition Yposition Zposition Zrotation Xrotation Yrotation
          JOINT Head
          {
            OFFSET 0 9.6179 1.685
            CHANNELS 6 Xposition Yposition Zposition Zrotation Xrotation Yrotation
            JOINT HeadTop_End
            {
              OFFSET 0 17.8152 2.585
              CHANNELS 6 Xposition Yposition Zposition Zrotation Xrotation Yrotation
              End Site
              {
                OFFSET 0 0 0
              }
            }
            JOINT LeftEye
            {
              OFFSET 3.0676 6.4095 9.2836
              CHANNELS 6 Xposition Yposition Zposition Zrotation Xrotation Yrotation
              End Site
              {
                OFFSET 0 0 0
              }
            }
            JOINT RightEye
            {
              OFFSET -3.0676 6.4095 9.2835
              CHANNELS 6 Xposition Yposition Zposition Zrotation Xrotation Yrotation
              End Site
              {
                OFFSET 0 0 0
              }
            }
          }
        }
        JOINT LeftShoulder
        {
          OFFSET 4.5704 10.946 -2.628
          CHANNELS 6 Xposition Yposition Zposition Zrotation Xrotation Yrotation
          JOINT LeftArm
          {
            OFFSET 10.5924 -0.5246 -2.2321
            CHANNELS 6 Xposition Yposition Zposition Zrotation Xrotation Yrotation
            JOINT LeftForeArm
            {
              OFFSET 27.8415 -0.0001 0
              CHANNELS 6 Xposition Yposition Zposition Zrotation Xrotation Yrotation
              JOINT LeftHand
              {
                OFFSET 28.3288 0 0
                CHANNELS 6 Xposition Yposition Zposition Zrotation Xrotation Yrotation
                JOINT LeftHandThumb1
                {
                  OFFSET 2.4661 -1.575 2.6824
                  CHANNELS 6 Xposition Yposition Zposition Zrotation Xrotation Yrotation
                  JOINT LeftHandThumb2
                  {
                    OFFSET 3.2298 -1.8647 1.8647
                    CHANNELS 6 Xposition Yposition Zposition Zrotation Xrotation Yrotation
                    JOINT LeftHandThumb3
                    {
                      OFFSET 2.6526 -1.5315 1.5315
                      CHANNELS 6 Xposition Yposition Zposition Zrotation Xrotation Yrotation
                      End Site
                      {
                        OFFSET 1.9546 -1.1285 1.1285
                      }
                    }
                  }
                }
                JOINT LeftHandIndex1
                {
                  OFFSET 9.1093 -0.5171 2.2601
                  CHANNELS 6 Xposition Yposition Zposition Zrotation Xrotation Yrotation
                  JOINT LeftHandIndex2
                  {
                    OFFSET 3.6764 0 0
                    CHANNELS 6 Xposition Yposition Zposition Zrotation Xrotation Yrotation
                    JOINT LeftHandIndex3
                    {
                      OFFSET 2.8831 0 0
                      CHANNELS 6 Xposition Yposition Zposition Zrotation Xrotation Yrotation
                      End Site
                      {
                        OFFSET 2.3927 0 0
                      }
                    }
                  }
                }
                JOINT LeftHandMiddle1
                {
                  OFFSET 9.5334 0 0
                  CHANNELS 6 Xposition Yposition Zposition Zrotation Xrotation Yrotation
                  JOINT LeftHandMiddle2
                  {
                    OFFSET 3.6982 0 0
                    CHANNELS 6 Xposition Yposition Zposition Zrotation Xrotation Yrotation
                    JOINT LeftHandMiddle3
                    {
                      OFFSET 2.9509 0 0
                      CHANNELS 6 Xposition Yposition Zposition Zrotation Xrotation Yrotation
                      End Site
                      {
                        OFFSET 2.8339 0 0
                      }
                    }
                  }
                }
                JOINT LeftHandRing1
                {
                  OFFSET 9.1045 -0.0439 -1.8651
                  CHANNELS 6 Xposition Yposition Zposition Zrotation Xrotation Yrotation
                  JOINT LeftHandRing2
                  {
                    OFFSET 3.154 0 0
                    CHANNELS 6 Xposition Yposition Zposition Zrotation Xrotation Yrotation
                    JOINT LeftHandRing3
                    {
                      OFFSET 2.9377 0 0
                      CHANNELS 6 Xposition Yposition Zposition Zrotation Xrotation Yrotation
                      End Site
                      {
                        OFFSET 2.6475 0 0
                      }
                    }
                  }
                }
                JOINT LeftHandPinky1
                {
                  OFFSET 8.0778 -0.4887 -3.8061
                  CHANNELS 6 Xposition Yposition Zposition Zrotation Xrotation Yrotation
                  JOINT LeftHandPinky2
                  {
                    OFFSET 3.6 0 0
                    CHANNELS 6 Xposition Yposition Zposition Zrotation Xrotation Yrotation
                    JOINT LeftHandPinky3
                    {
                      OFFSET 2.1142 0 0
                      CHANNELS 6 Xposition Yposition Zposition Zrotation Xrotation Yrotation
                      End Site
                      {
                        OFFSET 1.9757 0 0
                      }
                    }
                  }
                }
              }
            }
          }
        }
        JOINT RightShoulder
        {
          OFFSET -4.57 10.9462 -2.628
          CHANNELS 6 Xposition Yposition Zposition Zrotation Xrotation Yrotation
          JOINT RightArm
          {
            OFFSET -10.5928 -0.5248 -2.2321
            CHANNELS 6 Xposition Yposition Zposition Zrotation Xrotation Yrotation
            JOINT RightForeArm
            {
              OFFSET -27.8415 0 0
              CHANNELS 6 Xposition Yposition Zposition Zrotation Xrotation Yrotation
              JOINT RightHand
              {
                OFFSET -28.3288 0 0.0001
                CHANNELS 6 Xposition Yposition Zposition Zrotation Xrotation Yrotation
                JOINT RightHandPinky1
                {
                  OFFSET -8.0767 -0.4885 -3.806
                  CHANNELS 6 Xposition Yposition Zposition Zrotation Xrotation Yrotation
                  JOINT RightHandPinky2
                  {
                    OFFSET -3.6 0 0.0001
                    CHANNELS 6 Xposition Yposition Zposition Zrotation Xrotation Yrotation
                    JOINT RightHandPinky3
                    {
                      OFFSET -2.1142 0 0
                      CHANNELS 6 Xposition Yposition Zposition Zrotation Xrotation Yrotation
                      End Site
                      {
                        OFFSET -1.9757 0 0
                      }
                    }
                  }
                }
                JOINT RightHandRing1
                {
                  OFFSET -9.1036 -0.0439 -1.8651
                  CHANNELS 6 Xposition Yposition Zposition Zrotation Xrotation Yrotation
                  JOINT RightHandRing2
                  {
                    OFFSET -3.154 0 0
                    CHANNELS 6 Xposition Yposition Zposition Zrotation Xrotation Yrotation
                    JOINT RightHandRing3
                    {
                      OFFSET -2.9377 0 0
                      CHANNELS 6 Xposition Yposition Zposition Zrotation Xrotation Yrotation
                      End Site
                      {
                        OFFSET -2.6475 0 0
                      }
                    }
                  }
                }
                JOINT RightHandMiddle1
                {
                  OFFSET -9.5325 0 0
                  CHANNELS 6 Xposition Yposition Zposition Zrotation Xrotation Yrotation
                  JOINT RightHandMiddle2
                  {
                    OFFSET -3.6982 0 0
                    CHANNELS 6 Xposition Yposition Zposition Zrotation Xrotation Yrotation
                    JOINT RightHandMiddle3
                    {
                      OFFSET -2.9509 0 0
                      CHANNELS 6 Xposition Yposition Zposition Zrotation Xrotation Yrotation
                      End Site
                      {
                        OFFSET -2.8339 0 0.0001
                      }
                    }
                  }
                }
                JOINT RightHandIndex1
                {
                  OFFSET -9.1083 -0.5168 2.2601
                  CHANNELS 6 Xposition Yposition Zposition Zrotation Xrotation Yrotation
                  JOINT RightHandIndex2
                  {
                    OFFSET -3.6764 0 0
                    CHANNELS 6 Xposition Yposition Zposition Zrotation Xrotation Yrotation
                    JOINT RightHandIndex3
                    {
                      OFFSET -2.8831 0 0
                      CHANNELS 6 Xposition Yposition Zposition Zrotation Xrotation Yrotation
                      End Site
                      {
                        OFFSET -2.3927 0 0
                      }
                    }
                  }
                }
                JOINT RightHandThumb1
                {
                  OFFSET -2.4648 -1.5727 2.6826
                  CHANNELS 6 Xposition Yposition Zposition Zrotation Xrotation Yrotation
                  JOINT RightHandThumb2
                  {
                    OFFSET -3.2298 -1.8647 1.8647
                    CHANNELS 6 Xposition Yposition Zposition Zrotation Xrotation Yrotation
                    JOINT RightHandThumb3
                    {
                      OFFSET -2.6526 -1.5314 1.5314
                      CHANNELS 6 Xposition Yposition Zposition Zrotation Xrotation Yrotation
                      End Site
                      {
                        OFFSET -1.9546 -1.1285 1.1285
                      }
                    }
                  }
                }
              }
            }
          }
        }
      }
    }
  }
  JOINT LeftUpLeg
  {
    OFFSET 8.2078 -6.7517 -1.5996
    CHANNELS 6 Xposition Yposition Zposition Zrotation Xrotation Yrotation
    JOINT LeftLeg
    {
      OFFSET 0 -44.3705 0.2846
      CHANNELS 6 Xposition Yposition Zposition Zrotation Xrotation Yrotation
      JOINT LeftFoot
      {
        OFFSET 0 -44.4279 -2.9822
        CHANNELS 6 Xposition Yposition Zposition Zrotation Xrotation Yrotation
        JOINT LeftToeBase
        {
          OFFSET 0 -8.7287 10.7106
          CHANNELS 6 Xposition Yposition Zposition Zrotation Xrotation Yrotation
          End Site
          {
            OFFSET 0 -0.0007 9.2781
          }
        }
      }
    }
  }
  JOINT RightUpLeg
  {
    OFFSET -8.2078 -6.7517 -1.5996
    CHANNELS 6 Xposition Yposition Zposition Zrotation Xrotation Yrotation
    JOINT RightLeg
    {
      OFFSET 0 -44.3705 0.2862
      CHANNELS 6 Xposition Yposition Zposition Zrotation Xrotation Yrotation
      JOINT RightFoot
      {
        OFFSET 0 -44.4277 -2.9838
        CHANNELS 6 Xposition Yposition Zposition Zrotation Xrotation Yrotation
        JOINT RightToeBase
        {
          OFFSET 0 -8.7287 10.7106
          CHANNELS 6 Xposition Yposition Zposition Zrotation Xrotation Yrotation
          End Site
          {
            OFFSET 0 -0.0007 9.2781
          }
        }
      }
    }
  }
}
MOTION
Frames:	4
Frame Time:	0.0333333
-13.3246 90.9065 -6.40616 6.20325 4.26424 8.71543 2.22045e-016 10.1816 0.1315 -1.12482 20.5155 -1.33413 8.88178e-016 10.0835 -1.0008 -1.09004 2.57168 -0.218888 8.88178e-016 9.1 -1.3734 -1.09778 2.57248 -0.168934 0 16.6717 -2.5162 -3.12239 6.51046 -0.291365 -1.77636e-015 9.6179 1.685 -10.1253 -16.9604 -4.08082 -7.10543e-015 17.8152 2.585 -3.97569e-016 3.18055e-015 1.59028e-015 3.0676 6.4095 9.2836 -3.97569e-016 3.18055e-015 1.59028e-015 -3.0676 6.4095 9.2835 -3.97569e-016 3.18055e-015 1.59028e-015 4.5704 10.946 -2.628 -13.3833 0.434688 -19.3793 10.5924 -0.5246 -2.2321 -13.7089 -7.85741 20.1638 27.8415 -0.0001 0 2.52102 -5.98432 -124.837 28.3288 0 -7.10543e-015 9.733 -5.06282 7.8368 2.4661 -1.575 2.6824 -9.07047 3.58109 10.2876 3.2298 -1.8647 1.8647 17.7008 15.57 48.7758 2.6526 -1.5315 1.5315 15.379 12.4327 54.1549 9.1093 -0.5171 2.2601 -62.6428 -4.95329 -11.7239 3.6764 -7.10543e-015 0 -81.4923 -4.99016 5.7909 2.8831 0 7.10543e-015 -41.4882 -1.46824 3.87531 9.5334 1.42109e-014 -1.42109e-014 -62.3767 -5.21037 5.53162 3.6982 0 -7.10543e-015 -82.1177 -5.05341 5.80004 2.9509 0 0 -35.3009 -1.0757 3.37983 9.1045 -0.0439 -1.8651 -64.664 -5.33759 18.349 3.154 -7.10543e-015 0 -87.8557 -5.63681 5.85143 2.9377 1.42109e-014 1.77636e-015 -39.6777 -1.34786 3.73472 8.0778 -0.4887 -3.8061 -63.9196 -6.75335 23.5627 3.6 0 0 -82.5119 -5.09331 5.80544 2.1142 0 0 -38.3471 -1.26225 3.62904 -4.57 10.9462 -2.628 -4.29018 1.41433 20.5399 -10.5928 -0.5248 -2.2321 4.31048 25.8115 16.4552 -27.8415 -1.42109e-014 0 -4.09577e-006 1.45015e-005 85.8803 -28.3288 0 0.0001 -29.9901 8.42371 35.8002 -8.0767 -0.4885 -3.806 63.0659 -4.49711 -14.6575 -3.6 -3.55271e-015 0.0001 76.852 -3.5879 -4.52331 -2.1142 -1.42109e-014 0 51.9299 -1.78077 -3.65585 -9.1036 -0.0439 -1.8651 64.8629 -4.66809 -14.0873 -3.154 0 0 84.8278 -4.22724 -4.62676 -2.9377 1.42109e-014 -3.55271e-015 39.6539 -1.06843 -2.96273 -9.5325 0 3.55271e-015 63.2117 -4.57259 -4.42216 -3.6982 -7.10543e-015 3.55271e-015 78.4961 -3.7197 -4.55221 -2.9509 1.42109e-014 -3.55271e-015 30.7129 -0.651175 -2.37284 -9.1083 -0.5168 2.2601 63.4237 -4.40153 11.2847 -3.6764 -3.55271e-015 3.55271e-015 83.6323 -4.13085 -4.61699 -2.8831 -1.42109e-014 0 48.853 -1.5885 -3.49667 -2.4648 -1.5727 2.6826 11.7942 -7.98869 -3.58096 -3.2298 -1.8647 1.8647 -16.6932 19.2737 -57.5709 -2.6526 -1.5314 1.5314 -19.4927 8.88384 -51.6758 8.2078 -6.7517 -1.5996 10.2629 -34.0928 36.6718 8.88178e-016 -44.3705 0.2846 15.0587 55.3755 -22.6838 -1.77636e-015 -44.4279 -2.9822 0.695985 -22.7715 -22.2521 -4.44089e-016 -8.7287 10.7106 -0.855278 0.916572 0.0210509 -8.2078 -6.7517 -1.5996 -18.3653 -34.2397 -21.1418 3.55271e-015 -44.3705 0.2862 -19.6704 59.1586 21.6713 3.55271e-015 -44.4277 -2.9838 6.47777 -28.7919 2.83147 0 -8.7287 10.7106 3.91632e-007 -3.7899 1.06324e-006 
-12.5331 89.6509 -6.72382 11.552 6.7762 4.2373 1.77636e-015 10.1816 0.1315 -5.55545 19.3855 1.65132 6.66134e-016 10.0835 -1.0008 -1.86523 2.70136 0.632186 -1.33227e-015 9.1 -1.3734 -1.91439 2.68879 0.679903 -8.88178e-016 16.6717 -2.5162 -3.71826 6.65354 -0.353699 0 9.6179 1.685 -12.6431 -17.8556 -4.4796 0 17.8152 2.585 7.95139e-016 -3.18055e-015 1.59028e-015 3.0676 6.4095 9.2836 7.95139e-016 -3.18055e-015 1.59028e-015 -3.0676 6.4095 9.2835 7.95139e-016 -3.18055e-015 1.59028e-015 4.5704 10.946 -2.628 -17.1065 -0.0143971 -14.3442 10.5924 -0.5246 -2.2321 -15.0063 -8.22888 20.4083 27.8415 -0.0001 7.10543e-015 4.9544 -6.82496 -124.697 28.3288 -1.42109e-014 7.10543e-015 8.09073 -4.98297 8.81556 2.4661 -1.575 2.6824 -9.06788 3.54494 10.2603 3.2298 -1.8647 1.8647 17.7013 15.5588 48.7503 2.6526 -1.5315 1.5315 15.392 12.4271 54.0876 9.1093 -0.5171 2.2601 -62.5233 -4.94021 -11.7202 3.6764 0 0 -81.4545 -4.98633 5.79034 2.8831 0 0 -41.4869 -1.46816 3.87521 9.5334 1.42109e-014 1.42109e-014 -62.239 -5.19512 5.53233 3.6982 -7.10543e-015 0 -82.1178 -5.05342 5.80004 2.9509 -1.42109e-014 -7.10543e-015 -35.3011 -1.07571 3.37986 9.1045 -0.0439 -1.8651 -64.5182 -5.32118 18.358 3.154 7.10543e-015 -3.55271e-015 -87.8541 -5.63663 5.85143 2.9377 0 8.88178e-016 -39.678 -1.34788 3.73476 8.0778 -0.4887 -3.8061 -63.7704 -6.68901 23.5653 3.6 0 0 -82.5121 -5.09334 5.80545 2.1142 0 -3.55271e-015 -38.3469 -1.26225 3.62901 -4.57 10.9462 -2.628 -7.89989 0.989193 25.1716 -10.5928 -0.5248 -2.2321 5.29573 22.3075 14.8671 -27.8415 0 0 4.57346e-005 2.76783e-006 91.7324 -28.3288 0 0.0001 -28.327 9.59235 35.2676 -8.0767 -0.4885 -3.806 62.9987 -4.49041 -14.7014 -3.6 -3.55271e-015 0.0001 76.9409 -3.59492 -4.52496 -2.1142 0 -3.55271e-015 51.9304 -1.7808 -3.65587 -9.1036 -0.0439 -1.8651 64.786 -4.6606 -14.1278 -3.154 3.55271e-015 0 84.8994 -4.23303 -4.62729 -2.9377 0 7.10543e-015 39.6546 -1.06846 -2.96277 -9.5325 0 -3.55271e-015 63.1235 -4.56454 -4.42386 -3.6982 3.55271e-015 -3.55271e-015 78.5191 -3.72151 -4.55255 -2.9509 0 -3.55271e-015 30.7139 -0.651226 -2.37291 -9.1083 -0.5168 2.2601 63.3352 -4.39284 11.312 -3.6764 0 0 83.6341 -4.131 -4.617 -2.8831 1.42109e-014 1.06581e-014 48.8538 -1.58855 -3.49671 -2.4648 -1.5727 2.6826 11.769 -8.09105 -3.57252 -3.2298 -1.8647 1.8647 -16.6972 19.2804 -57.5785 -2.6526 -1.5314 1.5314 -19.5028 8.9071 -51.6874 8.2078 -6.7517 -1.5996 6.92668 -35.6514 39.1863 -2.66454e-015 -44.3705 0.2846 11.1115 57.0796 -19.3185 8.88178e-016 -44.4279 -2.9822 2.46145 -23.7086 -20.5796 0 -8.7287 10.7106 -0.831257 0.953907 0.0207974 -8.2078 -6.7517 -1.5996 -23.4401 -40.0497 -17.2815 3.55271e-015 -44.3705 0.2862 -22.4387 62.5842 24.0453 0 -44.4277 -2.9838 8.15211 -29.5393 3.66479 -3.55271e-015 -8.7287 10.7106 -1.32056e-006 -3.81503 -5.85825e-007 
-12.1034 87.3686 -7.26222 16.7484 7.4191 0.662465 0 10.1816 0.1315 -9.75791 20.1324 4.51166 -1.55431e-015 10.0835 -1.0008 -2.53302 3.00062 1.4425 -8.88178e-016 9.1 -1.3734 -2.62443 2.97475 1.48423 0 16.6717 -2.5162 -3.78905 6.66093 -0.516472 -1.77636e-015 9.6179 1.685 -14.5687 -19.4441 -5.85124 7.10543e-015 17.8152 2.585 4.77083e-015 0 -0 3.0676 6.4095 9.2836 4.77083e-015 0 -0 -3.0676 6.4095 9.2835 4.77083e-015 0 -0 4.5704 10.946 -2.628 -18.7265 -0.561115 -10.6818 10.5924 -0.5246 -2.2321 -15.5731 -9.18828 20.1983 27.8415 -0.0001 7.10543e-015 7.80734 -8.00305 -123.056 28.3288 -1.42109e-014 -7.10543e-015 5.95213 -5.15118 7.41137 2.4661 -1.575 2.6824 -9.06525 3.50924 10.233 3.2298 -1.8647 1.8647 17.7019 15.5476 48.7247 2.6526 -1.5315 1.5315 15.4062 12.4217 54.0211 9.1093 -0.5171 2.2601 -62.4048 -4.92726 -11.7165 3.6764 7.10543e-015 0 -81.4177 -4.98263 5.78977 2.8831 0 7.10543e-015 -41.4866 -1.46814 3.87519 9.5334 0 0 -62.1022 -5.18001 5.53301 3.6982 0 0 -82.119 -5.05353 5.80007 2.9509 0 0 -35.3022 -1.07577 3.37993 9.1045 -0.0439 -1.8651 -64.3733 -5.30493 18.3668 3.154 0 3.55271e-015 -87.8536 -5.63659 5.85143 2.9377 -1.42109e-014 1.77636e-015 -39.679 -1.34795 3.73484 8.0778 -0.4887 -3.8061 -63.6222 -6.62485 23.5675 3.6 -7.10543e-015 0 -82.5136 -5.09349 5.80548 2.1142 0 -3.55271e-015 -38.3478 -1.2623 3.62909 -4.57 10.9462 -2.628 -12.2886 0.959719 28.5447 -10.5928 -0.5248 -2.2321 7.23578 15.6735 13.976 -27.8415 -1.42109e-014 0 -4.53006e-005 -7.60555e-006 97.1582 -28.3288 0 0.0001 -24.9335 12.7861 33.3176 -8.0767 -0.4885 -3.806 62.9313 -4.48369 -14.7451 -3.6 0 0.0001 77.0304 -3.602 -4.52659 -2.1142 0 -3.55271e-015 51.9324 -1.78093 -3.65597 -9.1036 -0.0439 -1.8651 64.709 -4.65307 -14.1683 -3.154 -3.55271e-015 -7.10543e-015 84.9717 -4.23887 -4.6278 -2.9377 1.42109e-014 3.55271e-015 39.6558 -1.06853 -2.96285 -9.5325 0 3.55271e-015 63.0351 -4.5565 -4.42537 -3.6982 0 0 78.5425 -3.72338 -4.55294 -2.9509 0 0 30.7157 -0.651296 -2.37303 -9.1083 -0.5168 2.2601 63.2466 -4.38414 11.3397 -3.6764 -1.06581e-014 0 83.6362 -4.13116 -4.61703 -2.8831 -1.42109e-014 7.10543e-015 48.8548 -1.58861 -3.49676 -2.4648 -1.5727 2.6826 11.7428 -8.19296 -3.56523 -3.2298 -1.8647 1.8647 -16.7011 19.2872 -57.5861 -2.6526 -1.5314 1.5314 -19.513 8.93077 -51.7 8.2078 -6.7517 -1.5996 4.51166 -37.3333 40.5438 8.88178e-016 -44.3705 0.2846 7.24359 61.0602 -16.1474 0 -44.4279 -2.9822 4.27791 -25.5296 -18.4968 0 -8.7287 10.7106 -0.924476 0.914646 0.0233718 -8.2078 -6.7517 -1.5996 -28.9647 -45.2226 -14.9498 -3.55271e-015 -44.3705 0.2862 -27.0941 67.7249 28.8819 0 -44.4277 -2.9838 9.30638 -31.2309 4.53732 0 -8.7287 10.7106 -1.62388e-006 -3.78936 -8.01492e-007 
-11.9744 84.7313 -7.98892 20.0124 6.27048 -0.790294 0 10.1816 0.1315 -12.3384 22.6511 6.45737 -8.88178e-016 10.0835 -1.0008 -2.8683 3.36328 1.91385 -8.88178e-016 9.1 -1.3734 -2.99048 3.33121 1.95184 -4.44089e-016 16.6717 -2.5162 -3.51319 6.54233 -0.685205 -3.55271e-015 9.6179 1.685 -15.7551 -21.1287 -7.40495 0 17.8152 2.585 -3.18055e-015 1.59028e-015 6.36111e-015 3.0676 6.4095 9.2836 -3.18055e-015 1.59028e-015 6.36111e-015 -3.0676 6.4095 9.2835 -3.18055e-015 1.59028e-015 6.36111e-015 4.5704 10.946 -2.628 -18.2623 -0.898836 -8.53952 10.5924 -0.5246 -2.2321 -16.8721 -8.83615 19.5344 27.8415 -0.0001 0 10.6478 -9.50065 -120.405 28.3288 -1.42109e-014 3.55271e-015 4.40177 -5.44188 4.51358 2.4661 -1.575 2.6824 -9.06299 3.47144 10.2053 3.2298 -1.8647 1.8647 17.7024 15.5364 48.6992 2.6526 -1.5315 1.5315 15.4177 12.4135 53.9509 9.1093 -0.5171 2.2601 -62.2857 -4.91425 -11.7127 3.6764 0 0 -81.3804 -4.97887 5.7892 2.8831 -1.42109e-014 0 -41.4857 -1.46807 3.87514 9.5334 0 7.10543e-015 -61.9649 -5.16482 5.53362 3.6982 -7.10543e-015 0 -82.1195 -5.05359 5.80008 2.9509 0 0 -35.3027 -1.0758 3.37996 9.1045 -0.0439 -1.8651 -64.228 -5.28857 18.3753 3.154 0 8.88178e-016 -87.8524 -5.63647 5.85144 2.9377 0 -3.55271e-015 -39.6797 -1.34798 3.73487 8.0778 -0.4887 -3.8061 -63.4733 -6.56057 23.5694 3.6 -7.10543e-015 0 -82.5142 -5.09354 5.80549 2.1142 1.42109e-014 3.55271e-015 -38.3489 -1.26237 3.62918 -4.57 10.9462 -2.628 -15.6356 1.17627 30.4066 -10.5928 -0.5248 -2.2321 8.92002 8.93379 13.2482 -27.8415 1.42109e-014 -1.42109e-014 -6.04704e-007 6.04504e-006 101.425 -28.3288 0 0.0001 -21.7848 17.2456 30.5753 -8.0767 -0.4885 -3.806 62.8614 -4.47674 -14.7889 -3.6 0 0.0001 77.1169 -3.60883 -4.52817 -2.1142 0 3.55271e-015 51.9331 -1.78097 -3.65601 -9.1036 -0.0439 -1.8651 64.6295 -4.6453 -14.2092 -3.154 0 0 85.0425 -4.24458 -4.6283 -2.9377 0 0 39.6553 -1.0685 -2.96282 -9.5325 0 0 62.9443 -4.54823 -4.42696 -3.6982 3.55271e-015 0 78.5639 -3.72508 -4.55328 -2.9509 -1.42109e-014 0 30.7149 -0.651262 -2.37298 -9.1083 -0.5168 2.2601 63.1556 -4.37519 11.3674 -3.6764 3.55271e-015 7.10543e-015 83.6358 -4.13114 -4.61702 -2.8831 0 -3.55271e-015 48.853 -1.5885 -3.49667 -2.4648 -1.5727 2.6826 11.7227 -8.29335 -3.55379 -3.2298 -1.8647 1.8647 -16.7052 19.2936 -57.5932 -2.6526 -1.5314 1.5314 -19.5239 8.95044 -51.7015 8.2078 -6.7517 -1.5996 3.19236 -38.7502 40.7764 1.33227e-015 -44.3705 0.2846 6.25998 66.0494 -15.579 4.44089e-016 -44.4279 -2.9822 5.6293 -27.5503 -16.1886 4.44089e-016 -8.7287 10.7106 -1.15427 0.790356 0.0293391 -8.2078 -6.7517 -1.5996 -32.9163 -48.2555 -14.1395 0 -44.3705 0.2862 -35.0222 72.7503 36.995 -3.55271e-015 -44.4277 -2.9838 10.1076 -33.316 5.35617 7.10543e-015 -8.7287 10.7106 7.29378e-007 -3.73349 -5.76484e-007 
